<?xml version="1.0" encoding="UTF-8" standalone="no"?>
<!-- Created with Inkscape (http://www.inkscape.org/) -->
<svg id="svg2" xmlns:rdf="http://www.w3.org/1999/02/22-rdf-syntax-ns#" xmlns="http://www.w3.org/2000/svg" xml:space="preserve" height="100" width="118.43" version="1.1" xmlns:cc="http://creativecommons.org/ns#" xmlns:dc="http://purl.org/dc/elements/1.1/"><metadata id="metadata8"><rdf:RDF><cc:Work rdf:about=""><dc:format>image/svg+xml</dc:format><dc:type rdf:resource="http://purl.org/dc/dcmitype/StillImage"/><dc:title/></cc:Work></rdf:RDF></metadata><g id="g10" transform="matrix(0.68600703,0,0,-0.68600703,-0.00315563,99.994443)"><g id="g12" transform="translate(-198.255,381.483)"><g id="g14"><g id="g16"><g id="g18"><path id="path20" fill-rule="nonzero" fill="#008080" d="m198.28-235.72,0-145.72,172.62,0,0,145.72-172.62,0z"/></g><g id="g22"><path id="path24" fill-rule="nonzero" fill="#FFF" d="m205.57-242.73,0-131.71,158.05,0,0,131.71-158.05,0z"/></g><g id="g26"><path id="path28" fill-rule="nonzero" fill="#008080" d="m225.75-381.44,5.0111,20.056c10.163,10.999,19.511,22.406,23.945,36.269,28.299,5.475,51.182,3.4984,75.054,2.8859-2.1758,0.36259-72.889,12.343-72.889,12.343-18.784,25.701-45.946,12.161-58.357-11.494l-0.2545-60.111,27.491,0.0508z"/></g><g id="g30"><path id="path32" fill-rule="nonzero" fill="#FFF" d="m229.88-314.37-0.1744-0.32376c-0.73333-1.3663-1.967-2.2755-3.7111-2.8394s-3.9733-0.76021-6.5754-0.64758l-1.6439,0.0747,1.1706-1.1457c0.60406-0.58104,0.78895-1.0393,0.797-1.4446,0.008-0.40538-0.15604-0.84947-0.54794-1.345-0.78372-0.99102-2.3587-2.07-3.8107-3.1632l-0.44832-0.34869,0.29889-0.47319c1.2114-1.8584,1.7628-3.3104,1.8929-4.4086,0.13001-1.0981-0.1158-1.8609-0.62271-2.5405-1.0137-1.3592-3.2024-2.2722-5.2055-3.4122l-0.3985-0.22421,0.0747-0.42336c0.17215-1.0454-0.10108-1.8882-0.84685-2.7398-0.74577-0.85172-1.9818-1.6753-3.6614-2.3911l-0.44834-0.17439,0.0747-0.47319c0.335-2.2381,0.98227-4.2124,2.3911-5.4547,1.286-1.1338,3.2249-1.423,5.7038-0.92153,0.43341-2.3909,1.0769-4.5699,2.5155-6.0026,1.4689-1.4628,3.7486-1.9282,6.8744-1.0959,0.69292-1.6495,1.6673-2.836,2.8145-3.6115,1.2695-0.85825,2.695-1.2948,4.0598-1.7186l0.34869,1.1707c-1.3544,0.42058-2.6327,0.86507-3.7111,1.594-1.0784,0.72896-1.9795,1.7334-2.5903,3.462l-0.19925,0.57291-0.57292-0.17439c-3.1682-0.97364-4.9426-0.53192-6.152,0.67255-1.2094,1.2044-1.8759,3.3732-2.2914,5.9029l-0.0996,0.67255-0.67255-0.17441c-2.6113-0.68129-4.1534-0.32988-5.2055,0.59778-0.97268,0.85768-1.5593,2.3775-1.8929,4.2591,1.537,0.70512,2.8182,1.5029,3.6613,2.4657,0.81928,0.93556,1.1786,2.0619,1.1209,3.2629,1.8398,1.0083,4.0302,1.9019,5.3051,3.6114,0.67024,0.89874,1.035,2.0594,0.87181,3.4372-0.14745,1.2451-0.77272,2.7017-1.8183,4.4086,1.3032,0.96024,2.7153,1.9302,3.6116,3.0635,0.49708,0.62865,0.86262,1.3472,0.84682,2.142-0.009,0.43183-0.16626,0.84971-0.39851,1.2703,2.1602-0.011,4.1408,0.14299,5.7784,0.67244,1.7977,0.58128,3.1824,1.6294,4.1096,3.0885,2.676-0.0145,5.4657-0.60709,8.2691-0.97132,2.8809-0.37439,5.7923-0.49617,8.568,0.72225l-0.49814,1.1457c-2.4559-1.078-5.118-1.0117-7.9204-0.64759-2.8024,0.36417-5.7279,1.0425-8.6676,1.0212h-0.37353,0.00006z"/></g><g id="g34"><path id="path36" fill-rule="nonzero" fill="#FFF" d="m240.32-313.92c0-2.9177-2.3652-5.2829-5.2828-5.2829s-5.2828,2.3653-5.2828,5.2829,2.3652,5.2828,5.2828,5.2828c2.9177,0,5.2828-2.3652,5.2828-5.2828z"/></g><g id="g38"><path id="path40" fill-rule="nonzero" fill="#FFF" d="m255.86-309.19c-4.7428-6.1699-5.7056-4.3706-8.5929-5.4048l-0.49814-0.17438,0.0996-0.52301c1.1116-6.1971,4.6057-8.0838,7.4721-10.336l0.77207,0.9714c-2.8703,2.2556-5.7037,3.7635-6.8494,9.0164,2.1111,0.50808,4.097-0.14499,8.5929,5.7037l-0.99628,0.74721z"/></g><g id="g42"><path id="path44" fill-rule="nonzero" fill="#37c871" d="m240.32-313.92c0-2.9177-2.3652-5.2829-5.2828-5.2829s-5.2828,2.3653-5.2828,5.2829,2.3652,5.2828,5.2828,5.2828c2.9177,0,5.2828-2.3652,5.2828-5.2828z"/></g><g id="g46"><path id="path48" fill-rule="nonzero" fill="#FFF" d="m235.04-308.02c-3.2549,0-5.9029-2.6481-5.9029-5.903s2.648-5.9029,5.9029-5.9029,5.903,2.648,5.903,5.9029-2.6481,5.903-5.903,5.903zm0-1.2453c2.5804,0,4.6576-2.0772,4.6576-4.6576,0-2.5805-2.0772-4.6576-4.6576-4.6576s-4.6576,2.0771-4.6576,4.6576c0,2.5804,2.0771,4.6576,4.6576,4.6576z"/></g><g id="g50"><path id="path52" fill-rule="nonzero" fill="#FFF" d="m232.37-295.46c-2.4435-0.0525-4.8862-0.44714-7.2728-1.1457-10.209-2.9884-20.529-12.025-26.83-22.887l0.003-2.517c6.1506,11.558,16.798,21.171,27.176,24.209,2.6174,0.76617,5.2834,1.1603,7.9453,1.1208,7.9858-0.11846,16.007-4.1295,22.964-13.649l0.14945-0.19925,0.24907-0.0498s48.896-8.2824,63.837-10.81c-20.67,0.713-41.293,1.5975-66.029-3.1881l-0.37358-0.0747-0.0996-0.3487c-4.387-13.716-13.665-25.059-23.811-36.04l-0.0996-0.0996-0.0498-0.17438-5.0024-20.125h1.1713l5.0267,19.676c10.042,10.879,19.325,22.229,23.836,36.016,28.047,5.3728,50.776,3.425,74.572,2.8145l0.0996,1.2454c-0.002,0.0004-0.0725-0.00032-0.0747,0-2.2673,0.37826-72.143,12.23-72.579,12.304-7.0953,9.5968-15.45,13.768-23.761,13.923-0.34896,0.006-0.69701,0.007-1.0461,0l-0.0001-0.00008z"/></g><g id="g54"><path id="path56" fill-rule="nonzero" fill="#37c871" d="m294.93-345.62-29.117,0,0,3.9952c0.92814,0.0807,1.9168,0.16139,2.9661,0.24213,1.0493,0.12107,1.9169,0.28246,2.603,0.48428,1.1299,0.3632,1.9774,0.98869,2.5424,1.8765,0.56499,0.92822,0.84746,2.1187,0.84746,3.5716v69.13c0,1.4527-0.32286,2.8047-0.96854,4.0558-0.60533,1.2914-1.4125,2.3002-2.4214,3.0267-0.72641,0.48419-2.0582,0.92814-3.9953,1.3318-1.9371,0.40346-3.4908,0.6456-4.6611,0.72641v3.8742l22.458,1.3923,0.84749-0.90804v-81.903c0-1.4125,0.26229-2.5828,0.78698-3.511,0.5246-0.88788,1.3721-1.5739,2.5424-2.0582,0.88782-0.40361,1.7554-0.70624,2.603-0.90804,0.88781-0.20173,1.8765-0.34304,2.9661-0.4237v-3.9952"/></g><g id="g58"><path id="path60" fill-rule="nonzero" fill="#FFF" d="m285.16-251.41-22.466-1.3948-0.44841-0.0498,0-0.44832,0-3.8606,0-0.47327,0.44841-0.0249c1.1331-0.0783,2.6585-0.3215,4.5829-0.72226,1.8997-0.39589,3.194-0.83918,3.8108-1.2453,0.004-0.002,0.0213,0.002,0.025,0,0.92876-0.67284,1.6684-1.6167,2.2416-2.8394l0.025-0.0249c0.61042-1.183,0.89665-2.4301,0.89665-3.8108v-69.142c0-1.3898-0.26583-2.4808-0.77217-3.3126-0.5022-0.7893-1.224-1.3337-2.2665-1.6688-0.64073-0.1884-1.4735-0.35467-2.4907-0.47317-0.01-0.00081-0.0151,0.00077-0.025,0-1.041-0.0802-2.0417-0.14405-2.964-0.22423l-0.42337-0.0498v-4.9315h29.589v0.49814h0.49813v4.4334l-0.44831,0.0498c-1.0606,0.0786-2.0351,0.20572-2.8892,0.39851-0.007,0.002-0.0177-0.002-0.0249,0-0.80691,0.19376-1.6358,0.48317-2.4907,0.8718l-0.0249,0.025c-1.097,0.4539-1.8527,1.0583-2.3163,1.8431-0.47262,0.83606-0.72233,1.9105-0.72233,3.2628v82.093l-0.1245,0.14943-0.84683,0.89667-0.14946,0.17438h-0.2242zm-0.1743-0.99628,0.54796-0.57283,0-81.745c0-1.4727,0.27011-2.7158,0.84683-3.736l0.0249-0.0249c0.58217-0.98537,1.5066-1.7272,2.7398-2.2416,0.007-0.003,0.0178,0.003,0.025,0,0.90532-0.41008,1.8158-0.73837,2.69-0.94645,0.78042-0.17743,1.6695-0.26303,2.5903-0.34871v-3.1134h-28.145v3.0636c0.80203,0.0684,1.626,0.13078,2.5156,0.19925,1.0678,0.12314,1.9647,0.30974,2.6899,0.523h0.025c1.2174,0.39135,2.1618,1.0809,2.7896,2.0673,0.62364,1.0245,0.92158,2.3198,0.92158,3.8357v69.142c0,1.5248-0.34033,2.9397-1.0212,4.2591h0.0249c-0.63451,1.3537-1.5079,2.4336-2.5903,3.213-0.84054,0.56023-2.2211,1.0105-4.1844,1.4197-1.7547,0.36552-3.1071,0.54332-4.2591,0.64758v3.0138l21.769,1.345h-0.00015z"/></g><g id="g62"><path id="path64" fill-rule="nonzero" fill="#008080" d="m327.68-367.71c-3.7935,0.00008-7.2642,0.48436-10.412,1.4528-3.1478,0.92821-5.8516,2.1995-8.1116,3.8137-2.26,1.6143-4.0154,3.4706-5.2665,5.5691-1.2107,2.0986-1.816,4.2576-1.816,6.4772,0,1.9774,0.48427,3.7531,1.4528,5.327,0.96855,1.6142,2.5223,2.4214,4.6612,2.4214,2.4214,0,4.2575-0.60535,5.5086-1.816,1.2914-1.1703,1.9371-2.5222,1.9371-4.0558,0-1.2913-0.22198-2.9258-0.66592-4.9032-0.40353-1.9774-0.72641-3.3899-0.96855-4.2374,0.28247-0.3632,0.787-0.84746,1.5134-1.4528,0.76674-0.60535,1.695-1.1502,2.7846-1.6345,1.2913-0.60532,2.6433-1.0896,4.0558-1.4528,1.4124-0.36321,3.41-0.54477,5.9928-0.54483,2.4214,0.00006,4.7418,0.40359,6.9615,1.2108,2.2599,0.80706,4.2374,2.0985,5.9323,3.8742,1.7756,1.8564,3.1478,4.0356,4.1163,6.5377,1.0089,2.4617,1.5133,5.7104,1.5134,9.746-0.00008,2.1792-0.24224,4.3383-0.72641,6.4771-0.44394,2.1389-1.2914,3.9952-2.5424,5.5692-1.2511,1.5738-2.9662,2.7845-5.1454,3.632-2.1389,0.88782-4.863,1.3318-8.1721,1.3318h-7.9299v6.9614h5.2664c5.5691-0.00006,9.5845,1.5335,12.046,4.6006,2.4617,3.067,3.6925,7.6878,3.6926,13.862-0.00009,5.0444-1.1906,8.8379-3.5715,11.38-2.381,2.5828-5.7508,3.8741-10.109,3.8742-2.0985-0.00006-3.8339-0.26237-5.2059-0.78689-1.3317-0.48436-2.4214-0.96863-3.2688-1.4528-1.009-0.56509-1.8362-1.1906-2.4819-1.8766-0.64575-0.68608-1.13-1.1906-1.4529-1.5133,0.28247-1.2915,0.62552-2.8855,1.0291-4.7822,0.40352-1.8564,0.60533-3.6321,0.60533-5.327,0-1.4932-0.64574-2.8451-1.9371-4.0558-1.2511-1.1704-3.1074-1.7555-5.5691-1.7554-2.1389-0.0001-3.7128,0.76666-4.7217,2.3003-0.96863,1.5335-1.4529,3.3091-1.4528,5.327-0.00008,2.0985,0.58511,4.2373,1.7554,6.4166,1.1703,2.1792,2.9056,4.2172,5.2059,6.114,2.3003,1.8967,5.105,3.4301,8.4143,4.6006,3.3092,1.1703,7.1229,1.7554,11.441,1.7554,4.9638,0,9.0598-0.74665,12.288-2.2397,3.2688-1.4529,5.8314-3.2286,7.6879-5.327,1.8159-2.0582,3.0669-4.2173,3.7531-6.4772,0.68599-2.26,1.029-4.1971,1.029-5.8112-0.00009-2.0179-0.28255-4.0559-0.84749-6.114-0.565-2.0178-1.4932-3.8944-2.7846-5.6297-1.4125-1.8968-3.2891-3.632-5.6297-5.2059-2.3003-1.5336-5.2059-2.7846-8.7169-3.7531v-0.96855c2.2599-0.20179,4.6611-0.70623,7.2036-1.5134,2.5828-0.80716,4.9032-1.9976,6.9614-3.5715,2.1388-1.6546,3.8943-3.7935,5.2664-6.4166,1.3721-2.5828,2.0582-5.8718,2.0582-9.8671,0-7.7484-3.1074-14.024-9.3222-18.826-6.2149-4.8427-13.983-7.2641-23.306-7.2642"/></g><g id="g66"><path id="path68" fill-rule="nonzero" fill="#FFF" d="m332.04-278.24c-4.3621,0-8.2348-0.6008-11.607-1.7933-3.3537-1.186-6.2172-2.7442-8.568-4.6825-2.3396-1.9292-4.0998-4.0072-5.3052-6.2516-1.2011-2.2366-1.8182-4.4612-1.8182-6.6501-0.00007-2.0958,0.49925-3.9642,1.5193-5.5792v-0.0249c1.0957-1.6655,2.8756-2.5157,5.1308-2.5157,2.5388,0,4.5356,0.6138,5.903,1.893,1.3642,1.2789,2.0921,2.775,2.0922,4.4086-0.00008,1.7334-0.21265,3.5432-0.62271,5.4297-0.38074,1.7892-0.6982,3.2565-0.97134,4.5081,0.32368,0.3279,0.72331,0.73732,1.2952,1.345,0.60463,0.64239,1.3669,1.2477,2.3412,1.7933h0.0249c0.81281,0.46444,1.8741,0.94186,3.1881,1.4198,1.2948,0.49497,2.9732,0.772,5.0312,0.77208,4.2623-0.00008,7.4828-1.2621,9.7635-3.736,2.2713-2.4253,3.4372-6.0659,3.4372-11.034,0-6.1099-1.2247-10.632-3.5866-13.574-2.3496-2.9274-6.1767-4.4086-11.656-4.4085h-5.7535v-7.9454h8.3936c3.2657,0,5.9383-0.44139,7.9952-1.2952h0.025c2.1136-0.82204,3.7396-1.9875,4.9316-3.487,1.2016-1.5118,2.0106-3.2819,2.4409-5.355,0.47638-2.1042,0.72226-4.2331,0.72226-6.3762,0-3.9951-0.49599-7.1889-1.4695-9.5643h-0.025c-0.9471-2.4465-2.2793-4.5668-4.0101-6.3762-1.6458-1.7242-3.5388-2.9789-5.7286-3.761-2.1662-0.78773-4.4323-1.1956-6.7996-1.1956-2.56,0-4.5349,0.2026-5.878,0.54796-1.384,0.35588-2.6967,0.82746-3.9602,1.4197h-0.0249c-1.0596,0.47089-1.9368,0.99413-2.6651,1.5691-0.64392,0.53664-1.0359,0.93889-1.2952,1.2454,0.24189,0.88431,0.54541,2.1171,0.92152,3.9602,0.44889,1.9995,0.67253,3.6592,0.67253,5.0063,0,1.6701-0.72242,3.1672-2.0922,4.4086-1.3638,1.3197-3.3507,1.9428-5.8532,1.9428-2.2612,0-4.0311-0.89042-5.081-2.6402h0.0249c-1.0162-1.6514-1.5442-3.5223-1.5442-5.5792,0-2.3081,0.64518-4.5621,1.8929-6.7249,1.289-2.1621,3.0984-4.0811,5.4049-5.7286,2.311-1.6507,5.0533-2.9446,8.2442-3.8855,3.2003-0.98472,6.7257-1.4695,10.561-1.4695,9.4066,0,17.304,2.4572,23.612,7.3725,6.315,4.8798,9.5145,11.325,9.5145,19.203,0,4.051-0.69627,7.4128-2.1171,10.087-1.4008,2.6779-3.2074,4.8755-5.4048,6.5755-2.1043,1.6091-4.4898,2.8382-7.1234,3.6614-2.4088,0.76466-4.6776,1.2406-6.8494,1.4695v0.19926c3.3694,0.96272,6.227,2.1754,8.4933,3.6862,2.3782,1.5991,4.3027,3.3818,5.7536,5.3301,1.325,1.7805,2.2831,3.7027,2.8643,5.7784v0.0249c0.5757,2.0973,0.87171,4.1635,0.87179,6.2267-0.00008,1.6832-0.37564,3.662-1.071,5.9528-0.70879,2.3347-1.9813,4.5485-3.8357,6.6501-1.9093,2.1582-4.5387,3.982-7.8457,5.4546-0.006,0.003-0.0182-0.003-0.0249,0-3.3115,1.5268-7.476,2.2914-12.478,2.2914zm0-0.97134c4.9149-0.00008,8.9376-0.73859,12.08-2.1918,3.2206-1.4315,5.7225-3.1715,7.5219-5.2056,1.7776-2.0147,2.9979-4.1165,3.6613-6.3014,0.67666-2.2292,0.99629-4.1335,0.99629-5.6788,0-1.9725-0.26775-3.9587-0.8219-5.9777-0.54884-1.96-1.4322-3.7895-2.69-5.4796-1.3742-1.8452-3.2263-3.5324-5.5294-5.081-2.2446-1.4964-5.0942-2.728-8.568-3.6862l-0.3487-0.0996v-1.7933l0.42338-0.0249c2.2188-0.19817,4.5846-0.69638,7.0986-1.4944h0.0249c2.5319-0.79129,4.7876-1.9733,6.7996-3.5118,2.0802-1.6094,3.7874-3.6834,5.1309-6.2517,1.3233-2.491,1.9926-5.6994,1.9926-9.639,0-7.6183-3.0014-13.706-9.116-18.431-6.1218-4.7703-13.776-7.1732-23.014-7.1732-3.7521,0-7.1664,0.49215-10.262,1.4446h-0.0249c-3.1047,0.91548-5.7365,2.1583-7.9454,3.736-2.2073,1.5766-3.9184,3.3767-5.1309,5.4048-0.004,0.007,0.004,0.018,0,0.0249-1.1656,2.0274-1.7683,4.1029-1.7683,6.2268,0,1.898,0.47389,3.5598,1.3948,5.0562v0.0249c0.88717,1.4788,2.2177,2.167,4.2341,2.167,2.3403,0,4.0423-0.56717,5.1806-1.6688v-0.0249c1.2131-1.0993,1.7933-2.2893,1.7933-3.6862,0-1.2357-0.20857-2.8518-0.6475-4.8071h-0.0249c-0.40251-1.9721-0.71223-3.3892-0.94648-4.2093l-0.0747-0.22412,0.1495-0.19925c0.32607-0.41931,0.85466-0.90318,1.5941-1.5193v-0.0249c0.80516-0.63571,1.7695-1.1961,2.8892-1.6937,1.3192-0.61841,2.6936-1.099,4.1345-1.4695,1.4818-0.38098,3.5215-0.57283,6.1272-0.57283,2.4754,0,4.8504,0.41876,7.1233,1.2453,2.3301,0.83217,4.383,2.1828,6.1272,4.01,1.8154,1.8981,3.2196,4.1263,4.2092,6.6751,0.002,0.007-0.002,0.0179,0,0.0249,1.0386,2.5453,1.5442,5.8476,1.5442,9.913-0.00009,2.2153-0.25513,4.4019-0.74721,6.5755-0.45765,2.2046-1.3398,4.1424-2.6402,5.7784-1.3102,1.6483-3.0854,2.9129-5.3301,3.7859v-0.0249c-2.221,0.9219-5.0161,1.3698-8.3688,1.3699h-7.4223v6.0025h4.7822c5.6584,0,9.8298,1.5753,12.404,4.7822,2.5615,3.1914,3.8107,7.9329,3.8107,14.172,0,5.121-1.2204,9.0465-3.7111,11.706-2.4814,2.6915-6.0064,4.0348-10.461,4.0349-2.1391-0.00008-3.9306-0.26789-5.3799-0.82196-1.3496-0.49082-2.4555-0.99039-3.3375-1.4944-1.0436-0.58445-1.9036-1.2381-2.5903-1.9676-0.64408-0.6844-1.129-1.1789-1.4446-1.4944l-0.17439-0.19925,0.0499-0.24907c0.28215-1.2902,0.6177-2.8861,1.0211-4.7822,0.39701-1.8265,0.59779-3.5743,0.59779-5.2305,0-1.353-0.57474-2.5439-1.7933-3.6862-1.1348-1.0616-2.8458-1.644-5.2305-1.6439-2.0226-0.00009-3.3868,0.69046-4.309,2.0922-0.91705,1.4519-1.3698,3.1161-1.3698,5.0561,0,2.008,0.55417,4.055,1.6937,6.1769,1.1353,2.1139,2.82,4.1133,5.081,5.9777,2.2498,1.8551,5.0044,3.3535,8.2691,4.5082,3.2464,1.148,7.0087,1.7434,11.283,1.7435z"/></g></g></g></g></g></svg>
