<?xml version="1.0" encoding="UTF-8" standalone="no"?>
<!-- Created with Inkscape (http://www.inkscape.org/) -->

<svg
   xmlns:dc="http://purl.org/dc/elements/1.1/"
   xmlns:cc="http://creativecommons.org/ns#"
   xmlns:rdf="http://www.w3.org/1999/02/22-rdf-syntax-ns#"
   xmlns:svg="http://www.w3.org/2000/svg"
   xmlns="http://www.w3.org/2000/svg"
   version="1.1"
   width="316.39999"
   height="120"
   id="svg2">
  <defs
     id="defs79" />
  <metadata
     id="metadata61">
    <rdf:RDF>
      <cc:Work
         rdf:about="">
        <dc:format>image/svg+xml</dc:format>
        <dc:type
           rdf:resource="http://purl.org/dc/dcmitype/StillImage" />
        <dc:title></dc:title>
      </cc:Work>
    </rdf:RDF>
  </metadata>
  <g
     transform="matrix(0.99452608,0,0,0.99452608,-8.982512,-19.7611)"
     id="text3038-7"
     style="font-size:23.53051949px;font-style:normal;font-weight:normal;line-height:125%;letter-spacing:0px;word-spacing:0px;fill:#000000;font-family:Sans">
    <path
       d="m 270.88,97.36 1.3572,-0.21543 0,-9.4214 -1.1848,-0.12208 0,-0.78272 1.8886,0 c 0.1149,1.1e-5 0.26809,-0.0048 0.45959,-0.01436 0.19148,-0.0096 0.40212,-0.02153 0.63192,-0.0359 0.23457,-0.01435 0.47633,-0.02632 0.72527,-0.0359 0.25373,-0.0096 0.50027,-0.01435 0.73964,-0.01436 0.55053,1.1e-5 1.0556,0.05267 1.5152,0.15798 0.45957,0.10533 0.85453,0.28725 1.1849,0.54575 0.33031,0.25374 0.58643,0.59364 0.76836,1.0197 0.18669,0.42608 0.28005,0.96226 0.28005,1.6085 0,0.38778 -0.0551,0.74922 -0.16516,1.0843 -0.10533,0.33512 -0.25373,0.63911 -0.44522,0.91198 -0.1915,0.27288 -0.41889,0.51464 -0.68219,0.72528 -0.2633,0.21065 -0.54815,0.38538 -0.85453,0.52421 -0.30639,0.13884 -0.63193,0.24416 -0.97661,0.31596 -0.3399,0.06703 -0.68459,0.09575 -1.034,0.08617 -0.36384,-0.0096 -0.65826,-0.01196 -0.88326,-0.0072 -0.22501,0.0048 -0.4141,0.01915 -0.56729,0.04309 v 3.4109 l 1.9173,0.21543 v 0.61038 h -4.6748 V 97.3599 m 2.7575,-4.4737 c 0.27287,0.0383 0.5242,0.06224 0.754,0.07181 0.23457,0.0048 0.45957,0.0072 0.675,0.0072 0.22979,5e-6 0.45719,-0.01436 0.68219,-0.04309 0.22979,-0.03351 0.44522,-0.08856 0.64629,-0.16516 0.20585,-0.08138 0.39494,-0.18909 0.56729,-0.32314 0.17713,-0.13883 0.32793,-0.31596 0.4524,-0.53139 0.12925,-0.21542 0.22979,-0.47154 0.3016,-0.76836 0.0718,-0.30159 0.10771,-0.65585 0.10772,-1.0628 -1e-5,-0.88085 -0.24895,-1.5343 -0.74682,-1.9604 -0.4931,-0.42606 -1.2016,-0.62473 -2.1256,-0.59602 -0.23458,0.0096 -0.45959,0.02395 -0.67501,0.04309 -0.21064,0.01437 -0.42368,0.04788 -0.6391,0.10053 v 5.2277"
       id="path3950"
       style="fill:#000000" />
    <path
       d="m 280.38,97.36 1.1633,-0.1508 0,-5.8453 -1.0197,-0.56011 0,-0.44522 1.8958,-0.5673 0.33751,0.14362 0,1.1059 c 0.0909,-0.13404 0.22739,-0.27526 0.40931,-0.42368 0.1867,-0.1484 0.39495,-0.28244 0.62474,-0.40213 0.22979,-0.12446 0.46915,-0.225 0.7181,-0.3016 0.24893,-0.08138 0.48351,-0.12207 0.70373,-0.12208 0.15797,8e-6 0.2992,0.0048 0.42368,0.01436 0.12925,0.0048 0.2202,0.01676 0.27287,0.0359 v 1.4721 c -0.0766,-0.02872 -0.15559,-0.05744 -0.23697,-0.08617 -0.0814,-0.0335 -0.17235,-0.05983 -0.27288,-0.07899 -0.0957,-0.02393 -0.20586,-0.04308 -0.33032,-0.05745 -0.12447,-0.01436 -0.26809,-0.02154 -0.43086,-0.02154 -0.38777,7e-6 -0.71331,0.05027 -0.9766,0.1508 -0.26331,0.09575 -0.50507,0.21304 -0.72528,0.35187 v 5.6155 l 2.0466,0.17234 v 0.61038 h -4.603 v -0.61038"
       id="path3952"
       style="fill:#000000" />
    <path
       d="m 286.95,93.791 c 0.01,-0.64149 0.11968,-1.2136 0.33032,-1.7162 0.21543,-0.50745 0.49788,-0.93591 0.84735,-1.2854 0.34947,-0.34946 0.75161,-0.61755 1.2064,-0.80426 0.45958,-0.1867 0.93831,-0.28244 1.4362,-0.28724 0.60798,-0.0048 1.137,0.10054 1.587,0.31596 0.45,0.21544 0.82101,0.51225 1.113,0.89044 0.2968,0.37342 0.51702,0.81385 0.66064,1.3213 0.14361,0.50746 0.21303,1.0508 0.20825,1.6301 -0.005,0.63671 -0.10772,1.2184 -0.30878,1.745 -0.19629,0.5266 -0.46438,0.979 -0.80427,1.3572 -0.33511,0.37341 -0.73007,0.66544 -1.1848,0.87608 -0.45001,0.20585 -0.93353,0.30878 -1.4506,0.30878 -0.66065,0 -1.2232,-0.11968 -1.6875,-0.35905 -0.46437,-0.23936 -0.84256,-0.56011 -1.1346,-0.96225 -0.29203,-0.40213 -0.50507,-0.8641 -0.63911,-1.3859 -0.12926,-0.5266 -0.1891,-1.0747 -0.17952,-1.6444 m 3.7054,3.5474 c 0.40691,0.0096 0.7492,-0.05984 1.0269,-0.20825 0.28245,-0.1484 0.50984,-0.36623 0.68219,-0.65347 0.17712,-0.29202 0.30399,-0.65107 0.38059,-1.0771 0.0814,-0.43085 0.12207,-0.92394 0.12208,-1.4793 -1e-5,-0.48351 -0.0431,-0.93352 -0.12926,-1.35 -0.0814,-0.42128 -0.21304,-0.7875 -0.39495,-1.0987 -0.17714,-0.31117 -0.40453,-0.55532 -0.68219,-0.73246 -0.27288,-0.18191 -0.59842,-0.27766 -0.97661,-0.28724 -0.40693,-0.0048 -0.754,0.06703 -1.0412,0.21543 -0.28245,0.14363 -0.51464,0.35666 -0.69655,0.6391 -0.18192,0.28246 -0.31596,0.62714 -0.40213,1.0341 -0.0814,0.40692 -0.12208,0.8689 -0.12208,1.3859 0,0.46437 0.0455,0.91198 0.13644,1.3428 0.091,0.43086 0.22739,0.81384 0.40931,1.149 0.18192,0.33032 0.41171,0.59841 0.68937,0.80427 0.28245,0.20107 0.61517,0.30639 0.99816,0.31596"
       id="path3954"
       style="fill:#000000" />
    <path
       d="m 297.39,87.889 c -0.1149,1e-5 -0.2274,-0.01914 -0.3375,-0.05745 -0.11011,-0.04307 -0.20825,-0.10052 -0.29442,-0.17234 -0.0814,-0.07659 -0.14841,-0.16994 -0.20107,-0.28006 -0.0479,-0.1101 -0.0718,-0.23457 -0.0718,-0.37341 0,-0.1484 0.0311,-0.28723 0.0934,-0.41649 0.067,-0.12925 0.15079,-0.23935 0.25133,-0.33032 0.10053,-0.09573 0.21303,-0.16994 0.3375,-0.22261 0.12926,-0.05265 0.25851,-0.07898 0.38777,-0.07899 0.31596,1.2e-5 0.54575,0.08858 0.68937,0.2657 0.14841,0.17236 0.22261,0.3806 0.22261,0.62474 0,0.15799 -0.0311,0.30161 -0.0933,0.43086 -0.0622,0.12927 -0.14362,0.23938 -0.24415,0.33032 -0.10054,0.08618 -0.21543,0.1556 -0.34469,0.20825 -0.12926,0.04788 -0.26091,0.07182 -0.39495,0.07181 m -0.36623,3.4397 -0.99815,-0.53139 0,-0.43086 2.0178,-0.57448 0.33032,0.14362 0,8.1504 c 0,0.56011 -0.0622,1.0604 -0.1867,1.5008 -0.11969,0.44522 -0.29442,0.82102 -0.52421,1.1274 -0.22501,0.31117 -0.49788,0.54814 -0.81863,0.71091 -0.32075,0.16277 -0.6798,0.24415 -1.0771,0.24416 -0.0479,-1e-5 -0.1125,-0.002 -0.19389,-0.007 -0.0814,-0.005 -0.16277,-0.012 -0.24415,-0.0215 -0.0766,-0.01 -0.14841,-0.0215 -0.21543,-0.0359 -0.067,-0.0144 -0.11011,-0.0287 -0.12925,-0.0431 v -0.99097 c 0.0383,0.0144 0.0934,0.0263 0.16516,0.0359 0.0718,0.01 0.14601,0.0168 0.22261,0.0215 0.0814,0.01 0.15798,0.0144 0.22979,0.0144 0.0718,0.005 0.12925,0.007 0.17234,0.007 0.22979,0 0.42367,-0.0455 0.58166,-0.13644 0.16276,-0.0862 0.29202,-0.23458 0.38777,-0.44521 0.10053,-0.20586 0.17234,-0.47874 0.21543,-0.81863 0.0431,-0.3399 0.0646,-0.76118 0.0646,-1.2638 v -6.6567"
       id="path3956"
       style="fill:#000000" />
    <path
       d="m 300.45,93.978 c 0,-0.61277 0.0958,-1.1777 0.28724,-1.6947 0.19628,-0.51702 0.46676,-0.96463 0.81145,-1.3428 0.34947,-0.37819 0.76836,-0.675 1.2567,-0.89044 0.48831,-0.22021 1.0269,-0.3375 1.6157,-0.35187 0.42127,-0.0096 0.80186,0.05267 1.1418,0.1867 0.33989,0.12926 0.62952,0.32315 0.86889,0.58166 0.23936,0.25852 0.42606,0.57448 0.56012,0.94788 0.13882,0.37342 0.21781,0.79709 0.23697,1.271 0.01,0.3016 0.002,0.56251 -0.0215,0.78272 -0.0192,0.22022 -0.0407,0.4165 -0.0646,0.58884 h -5.3211 c -10e-6,0.02873 -10e-6,0.05745 0,0.08617 -10e-6,0.02394 0.002,0.05027 0.007,0.07899 0.0191,0.57927 0.11728,1.058 0.29442,1.4362 0.17712,0.3782 0.39734,0.6798 0.66064,0.9048 0.26809,0.22022 0.56251,0.3758 0.88326,0.46676 0.32074,0.08617 0.63431,0.12926 0.9407,0.12926 0.1867,0 0.38298,-0.0096 0.58884,-0.02872 0.20585,-0.02394 0.40452,-0.05505 0.59602,-0.09335 0.19627,-0.04308 0.37579,-0.09096 0.53857,-0.14362 0.16755,-0.05266 0.30159,-0.10771 0.40213,-0.16516 l 0.2657,0.61038 c -0.13884,0.12447 -0.32076,0.23697 -0.54576,0.3375 -0.22022,0.10053 -0.46198,0.1867 -0.72527,0.25851 -0.26331,0.06702 -0.53858,0.11729 -0.82581,0.1508 -0.28724,0.0383 -0.5673,0.05745 -0.84017,0.05745 -0.57927,0 -1.0939,-0.09814 -1.5439,-0.29442 -0.44522,-0.20107 -0.82103,-0.48112 -1.1274,-0.84017 -0.30639,-0.36383 -0.54097,-0.80187 -0.70373,-1.3141 -0.15799,-0.51224 -0.23698,-1.0843 -0.23698,-1.7162 m 5.3139,-0.76836 c 0.0144,-0.24415 0.0168,-0.4883 0.007,-0.73246 -0.005,-0.24893 -0.0335,-0.48351 -0.0862,-0.70373 -0.0527,-0.225 -0.13405,-0.42846 -0.24415,-0.61038 -0.10532,-0.1867 -0.24894,-0.3375 -0.43085,-0.4524 -0.12448,-0.08138 -0.2657,-0.14122 -0.42368,-0.17952 -0.15799,-0.04308 -0.33751,-0.06462 -0.53857,-0.06463 -0.26809,7e-6 -0.529,0.05027 -0.78272,0.1508 -0.24895,0.10054 -0.47395,0.26091 -0.67501,0.48112 -0.19629,0.22022 -0.36145,0.50507 -0.49549,0.85453 -0.13405,0.34469 -0.22022,0.76358 -0.25851,1.2567 h 3.928"
       id="path3958"
       style="fill:#000000" />
    <path
       d="m 308.7,94.107 c -0.005,-0.66064 0.0933,-1.2567 0.29442,-1.7881 0.20107,-0.53138 0.47633,-0.98618 0.82581,-1.3644 0.35426,-0.37819 0.76836,-0.67261 1.2423,-0.88326 0.47873,-0.21063 0.99336,-0.32792 1.5439,-0.35187 0.20106,-0.0048 0.40452,8e-6 0.61038,0.01436 0.21063,0.0096 0.40691,0.03113 0.58883,0.06463 0.1867,0.02873 0.35665,0.06703 0.50985,0.1149 0.15319,0.04788 0.27766,0.10294 0.37341,0.16516 v 1.7234 h -0.68219 l -0.36623,-0.9048 c -0.0766,-0.06223 -0.16517,-0.11489 -0.26569,-0.15798 -0.10054,-0.04308 -0.20347,-0.07898 -0.30878,-0.10771 -0.10533,-0.02872 -0.21065,-0.04787 -0.31597,-0.05745 -0.10532,-0.01435 -0.20107,-0.02154 -0.28723,-0.02154 -0.32076,8e-6 -0.62714,0.05985 -0.91916,0.17952 -0.29203,0.11969 -0.55055,0.30161 -0.77555,0.54575 -0.225,0.23937 -0.40453,0.54336 -0.53857,0.91198 -0.13404,0.36384 -0.20346,0.7923 -0.20824,1.2854 -0.005,0.65108 0.0718,1.2088 0.22979,1.6732 0.15797,0.46437 0.36383,0.84496 0.61756,1.1418 0.25372,0.29203 0.53617,0.50746 0.84735,0.64628 0.31117,0.13405 0.61756,0.20107 0.91916,0.20107 0.1867,1e-6 0.38058,-0.01197 0.58166,-0.0359 0.20106,-0.02394 0.39494,-0.05505 0.58165,-0.09335 0.1867,-0.0383 0.35904,-0.08378 0.51703,-0.13644 0.15797,-0.05745 0.28723,-0.11489 0.38777,-0.17234 l 0.24415,0.6391 c -0.13883,0.12447 -0.31118,0.23458 -0.51702,0.33032 -0.20586,0.09575 -0.43326,0.17713 -0.68219,0.24415 -0.24416,0.06702 -0.50268,0.11729 -0.77555,0.1508 -0.26809,0.0383 -0.53857,0.05745 -0.81144,0.05745 -0.55533,0 -1.046,-0.10053 -1.4721,-0.3016 -0.42607,-0.20107 -0.78751,-0.48112 -1.0843,-0.84017 -0.29203,-0.35905 -0.51463,-0.78272 -0.66783,-1.271 -0.15319,-0.49309 -0.23218,-1.0269 -0.23697,-1.6014"
       id="path3960"
       style="fill:#000000" />
    <path
       d="m 317.34,96.089 v -2.621 c 0.005,-0.87128 0.007,-1.7474 0.007,-2.6282 h -1.0987 v -0.53857 c 0.21064,-0.05265 0.38538,-0.09334 0.52421,-0.12208 0.14362,-0.0335 0.26091,-0.06941 0.35187,-0.10771 0.0957,-0.04308 0.17473,-0.09574 0.23697,-0.15798 0.0622,-0.06223 0.11968,-0.15318 0.17234,-0.27288 0.0335,-0.08138 0.0742,-0.20106 0.12208,-0.35905 0.0527,-0.15797 0.10053,-0.31835 0.14362,-0.48112 0.0479,-0.16755 0.0886,-0.32313 0.12207,-0.46676 0.0335,-0.1484 0.0551,-0.25372 0.0646,-0.31596 h 0.71092 v 1.9173 h 2.4128 v 0.9048 h -2.4128 v 3.6192 c -10e-6,0.55533 0.007,1.0077 0.0215,1.3572 0.0144,0.34469 0.0503,0.61517 0.10771,0.81145 0.0575,0.19628 0.14123,0.33032 0.25134,0.40213 0.1101,0.06702 0.26329,0.10053 0.45958,0.10053 0.11968,10e-7 0.25133,-0.01197 0.39495,-0.03591 0.1484,-0.02393 0.28963,-0.05266 0.42368,-0.08617 0.13882,-0.03351 0.26568,-0.06942 0.38059,-0.10771 0.11488,-0.04309 0.20106,-0.08378 0.25851,-0.12208 l 0.22261,0.63192 c -0.11011,0.11968 -0.25613,0.225 -0.43804,0.31596 -0.18192,0.09096 -0.38059,0.16756 -0.59602,0.22979 -0.21064,0.06223 -0.42368,0.10771 -0.6391,0.13644 -0.21065,0.03351 -0.39735,0.05027 -0.56012,0.05027 -0.52181,0 -0.92634,-0.16037 -1.2136,-0.48112 -0.28723,-0.32075 -0.43085,-0.84496 -0.43085,-1.5726"
       id="path3962"
       style="fill:#000000" />
  </g>
  <g
     transform="matrix(4.2767203,0,0,4.2767203,147.39868,56.34844)"
     id="g3049"
     style="fill:#000000">
    <path
       d="M 5.46,4.23 H 5.21 c -0.1,1.02 -0.24,2.26 -2,2.26 H 2.4 C 1.93,6.49 1.91,6.42 1.91,6.09 V 0.78 c 0,-0.34 0,-0.48 0.94,-0.48 H 3.18 V 0 C 2.82,0.03 1.92,0.03 1.51,0.03 1.12,0.03 0.34,0.03 0,0 V 0.3 H 0.23 C 1,0.3 1.02,0.41 1.02,0.77 V 6.02 C 1.02,6.38 1,6.49 0.23,6.49 H 0 V 6.8 h 5.19 c 0,0 0.27,-2.57 0.27,-2.57 z"
       transform="translate(0,0.17)"
       id="path3051"
       style="fill:#000000" />
    <path
       d="M 2.81,0.16 C 2.77,0.04 2.75,0 2.62,0 2.49,0 2.46,0.04 2.42,0.16 2.42,0.16 0.81,4.24 0.81,4.24 0.74,4.41 0.62,4.72 0,4.72 V 4.97 H 1.55 V 4.72 c -0.31,0 -0.5,-0.14 -0.5,-0.34 0,-0.05 0.01,-0.07 0.03,-0.14 0,0 0.34,-0.86 0.34,-0.86 H 3.4 c 0,0 0.4,1.02 0.4,1.02 0.02,0.04 0.04,0.09 0.04,0.12 0,0.2 -0.38,0.2 -0.57,0.2 V 4.97 H 5.24 V 4.72 H 5.1 c -0.47,0 -0.52,-0.07 -0.59,-0.27 0,0 -1.7,-4.29 -1.7,-4.29 z m -0.4,0.71 c 0,0 0.89,2.26 0.89,2.26 H 1.52 c 0,0 0.89,-2.26 0.89,-2.26 z"
       transform="translate(2.48,0)"
       id="path3053"
       style="fill:#000000" />
    <path
       d="M 6.27,0 H 0.18 C 0.18,0 0,2.24 0,2.24 H 0.24 C 0.38,0.63 0.53,0.3 2.04,0.3 c 0.18,0 0.44,0 0.54,0.02 0.21,0.04 0.21,0.15 0.21,0.38 v 5.25 c 0,0.34 0,0.48 -1.05,0.48 H 1.34 V 6.74 C 1.75,6.71 2.76,6.71 3.22,6.71 c 0.46,0 1.49,0 1.9,0.03 V 6.43 H 4.72 C 3.67,6.43 3.67,6.29 3.67,5.95 V 0.7 c 0,-0.2 0,-0.34 0.18,-0.38 C 3.96,0.3 4.23,0.3 4.42,0.3 c 1.5,0 1.65,0.33 1.79,1.94 H 6.46 C 6.46,2.24 6.27,0 6.27,0 z"
       transform="translate(7.03,0.23)"
       id="path3055"
       style="fill:#000000" />
    <path
       d="M 6.16,4.2 H 5.91 C 5.66,5.73 5.43,6.46 3.72,6.46 H 2.4 C 1.93,6.46 1.91,6.39 1.91,6.06 V 3.4 H 2.8 c 0.97,0 1.08,0.32 1.08,1.17 H 4.13 V 1.93 H 3.88 C 3.88,2.78 3.77,3.09 2.8,3.09 H 1.91 V 0.7 C 1.91,0.37 1.93,0.3 2.4,0.3 h 1.28 c 1.53,0 1.79,0.55 1.95,1.94 H 5.88 C 5.88,2.24 5.6,0 5.6,0 H 0 V 0.3 H 0.23 C 1,0.3 1.02,0.41 1.02,0.77 V 5.99 C 1.02,6.35 1,6.46 0.23,6.46 H 0 v 0.31 h 5.74 c 0,0 0.42,-2.57 0.42,-2.57 z"
       transform="translate(12.5,2.45)"
       id="path3057"
       style="fill:#000000" />
    <path
       d="m 3.76,2.95 c 0,0 1.37,-2 1.37,-2 C 5.34,0.63 5.68,0.31 6.57,0.3 V 0 H 4.19 v 0.3 c 0.4,0.01 0.62,0.23 0.62,0.46 0,0.1 -0.02,0.12 -0.09,0.23 0,0 -1.14,1.68 -1.14,1.68 C 3.58,2.67 2.3,0.75 2.3,0.75 2.28,0.72 2.23,0.64 2.23,0.6 2.23,0.48 2.45,0.31 2.87,0.3 V 0 C 2.53,0.03 1.8,0.03 1.42,0.03 1.11,0.03 0.49,0.02 0.12,0 v 0.3 h 0.19 c 0.55,0 0.74,0.07 0.93,0.35 0,0 1.83,2.77 1.83,2.77 0,0 -1.63,2.41 -1.63,2.41 C 1.3,6.03 1,6.49 0,6.49 V 6.8 H 2.38 V 6.49 C 1.92,6.48 1.75,6.21 1.75,6.03 c 0,-0.09 0.03,-0.13 0.1,-0.24 0,0 1.41,-2.09 1.41,-2.09 0,0 1.58,2.38 1.58,2.38 0.02,0.04 0.05,0.08 0.05,0.11 0,0.12 -0.22,0.29 -0.65,0.3 V 6.8 C 4.59,6.77 5.32,6.77 5.69,6.77 c 0.42,0 0.88,0.01 1.3,0.03 V 6.49 H 6.8 c -0.52,0 -0.73,-0.05 -0.94,-0.36 0,0 -2.1,-3.18 -2.1,-3.18 z"
       transform="translate(17.91,0.17)"
       id="path3059"
       style="fill:#000000" />
  </g>
  <g
     transform="matrix(0.99452608,0,0,0.99452608,-8.982512,-19.7611)"
     id="text3038-7-9"
     style="font-size:23.53051949px;font-style:normal;font-weight:normal;line-height:125%;letter-spacing:0px;word-spacing:0px;fill:#000000;font-family:Sans">
    <path
       d="m 125.38,97.009 1.7593,-0.21543 0,-9.5291 -2.6067,0.14362 -0.50267,1.2279 -0.65346,0.01436 0.17952,-2.183 8.5525,0 -0.0144,2.2046 -0.58883,0.06463 -0.37341,-1.3357 -2.5923,-0.13644 0,9.5291 1.8742,0.21543 0,0.61038 -5.0338,0 0,-0.61038"
       id="path3965"
       style="fill:#000000" />
    <path
       d="m 133.19,97.009 1.0771,-0.1508 0,-9.723 -1.2279,-0.25851 0,-0.62474 2.2692,-0.3016 0.3375,0.16516 -0.0144,3.174 -0.0215,1.2423 c 0.21063,-0.17234 0.43803,-0.32553 0.68219,-0.45958 0.24893,-0.13404 0.49787,-0.24654 0.74681,-0.3375 0.24894,-0.09574 0.4907,-0.16755 0.72528,-0.21543 0.23936,-0.05265 0.45479,-0.07898 0.64628,-0.07899 0.4883,8e-6 0.88804,0.07421 1.1992,0.22261 0.31117,0.14841 0.55532,0.3782 0.73246,0.68937 0.18191,0.30639 0.30638,0.70134 0.37341,1.1849 0.067,0.48352 0.0981,1.058 0.0934,1.7234 v 3.5977 l 1.0771,0.1508 v 0.61038 h -3.6623 v -0.61038 l 1.2064,-0.1508 v -2.9873 c -1e-5,-0.55532 -0.0144,-1.0436 -0.0431,-1.4649 -0.0239,-0.42128 -0.0934,-0.77314 -0.20824,-1.0556 -0.11012,-0.28723 -0.27767,-0.50266 -0.50267,-0.64628 -0.22501,-0.14361 -0.53618,-0.21542 -0.93352,-0.21543 -0.15799,7e-6 -0.32554,0.0096 -0.50267,0.02872 -0.17713,0.01916 -0.35666,0.05267 -0.53857,0.10053 -0.17713,0.04309 -0.35666,0.10293 -0.53857,0.17952 -0.17713,0.0766 -0.34948,0.17474 -0.51703,0.29442 v 5.7663 l 1.0556,0.1508 v 0.61038 h -3.5115 v -0.61038"
       id="path3967"
       style="fill:#000000" />
    <path
       d="m 143.1,93.626 c 0,-0.61277 0.0958,-1.1777 0.28724,-1.6947 0.19628,-0.51702 0.46676,-0.96463 0.81145,-1.3428 0.34947,-0.37819 0.76836,-0.675 1.2567,-0.89044 0.4883,-0.22021 1.0269,-0.3375 1.6157,-0.35187 0.42128,-0.0096 0.80187,0.05267 1.1418,0.1867 0.33989,0.12926 0.62952,0.32315 0.86889,0.58166 0.23936,0.25852 0.42606,0.57448 0.56011,0.94788 0.13883,0.37342 0.21782,0.79709 0.23697,1.271 0.01,0.3016 0.002,0.56251 -0.0215,0.78272 -0.0192,0.22022 -0.0407,0.4165 -0.0646,0.58884 h -5.3211 v 0.08617 c 0,0.02394 0.002,0.05027 0.007,0.07899 0.0192,0.57927 0.11729,1.058 0.29442,1.4362 0.17713,0.3782 0.39735,0.6798 0.66065,0.9048 0.26808,0.22022 0.5625,0.3758 0.88326,0.46676 0.32074,0.08617 0.63431,0.12926 0.9407,0.12926 0.1867,10e-7 0.38298,-0.0096 0.58884,-0.02872 0.20585,-0.02394 0.40452,-0.05505 0.59602,-0.09335 0.19627,-0.04308 0.37579,-0.09096 0.53857,-0.14362 0.16754,-0.05266 0.30159,-0.10771 0.40213,-0.16516 l 0.26569,0.61038 c -0.13883,0.12447 -0.32075,0.23697 -0.54575,0.3375 -0.22022,0.10053 -0.46198,0.1867 -0.72527,0.25851 -0.26331,0.06702 -0.53858,0.11729 -0.82581,0.1508 -0.28724,0.0383 -0.5673,0.05745 -0.84017,0.05745 -0.57927,0 -1.0939,-0.09814 -1.5439,-0.29442 -0.44522,-0.20107 -0.82102,-0.48112 -1.1274,-0.84017 -0.30639,-0.36383 -0.54097,-0.80187 -0.70374,-1.3141 -0.15798,-0.51224 -0.23697,-1.0843 -0.23697,-1.7162 m 5.3139,-0.76836 c 0.0144,-0.24415 0.0167,-0.4883 0.007,-0.73246 -0.005,-0.24893 -0.0335,-0.48351 -0.0862,-0.70373 -0.0527,-0.225 -0.13405,-0.42846 -0.24415,-0.61038 -0.10533,-0.1867 -0.24895,-0.3375 -0.43086,-0.4524 -0.12447,-0.08138 -0.2657,-0.14122 -0.42367,-0.17952 -0.15799,-0.04308 -0.33751,-0.06462 -0.53857,-0.06463 -0.2681,7e-6 -0.529,0.05027 -0.78273,0.1508 -0.24894,0.10054 -0.47394,0.26092 -0.67501,0.48112 -0.19628,0.22022 -0.36144,0.50507 -0.49548,0.85453 -0.13405,0.34469 -0.22022,0.76358 -0.25852,1.2567 h 3.928"
       id="path3969"
       style="fill:#000000" />
  </g>
  <path
     d="m 107.75,84.833 32.413,0 0,1.2866 -32.413,0 z"
     id="rect3070"
     style="fill:#000000" />
  <path
     d="m 260.43,84.835 55.971,0 0,1.2866 -55.971,0 z"
     id="rect3070-7"
     style="fill:#000000" />
  <g
     transform="matrix(1.3435916,0,0,1.3435916,-256.71526,-723.66624)"
     id="layer1">
    <g
       transform="matrix(0.58826838,0,0,-0.58826838,191.06432,638.60215)"
       id="g3363">
      <g
         transform="translate(-131.809,509.294)"
         id="g3365">
        <g
           id="g3367">
          <g
             id="g3369">
            <g
               id="g3371">
              <path
                 d="m 149.96,-340.67 c 1.8968,-3.4174 3.8698,-6.3595 5.9279,-8.8918 l 0.0249,-0.0249 c 0.007,-0.009 0.0177,-0.0161 0.0249,-0.0249 -0.94806,0.13835 -1.9246,0.23487 -2.939,0.2242 -2.0037,-0.0211 -4.1554,-0.36537 -6.4758,-1.0959 3.9851,-3.3371 7.3783,-5.7768 10.361,-7.6714 -0.0729,0.024 -0.15143,0.0511 -0.2242,0.0747 l 0.2242,-0.12457 c -4.621,1.4463 -9.6061,1.6232 -15.442,-1.1457 4.1905,-2.6223 7.7071,-4.5356 10.81,-5.9777 -0.0908,0.0135 -0.18332,0.0371 -0.274,0.0498 l 0.2242,-0.12451 c -4.8356,0.83273 -9.854,0.36464 -15.318,-3.2379 3.5625,-1.5875 6.6575,-2.7858 9.4148,-3.7112 h 0.0249 l 0.17441,-0.0996 c -4.6111,-0.17927 -9.1809,-1.615 -13.649,-5.8531 3.9032,-0.96823 7.245,-1.6148 10.187,-2.0424 -0.0826,-0.0167 -0.1665,-0.0321 -0.24906,-0.0498 -0.11484,0.002 -0.23434,-0.002 -0.3487,0 l 0.12456,-0.0498 c -3.4373,-0.78055 -6.789,-2.5039 -10.062,-5.8034 2.652,-0.573 5.0383,-1.0181 7.223,-1.345 -2.6896,-1.3001 -5.2443,-3.3148 -7.5717,-6.4011 3.056,-0.23727 5.7634,-0.33865 8.1944,-0.34871 -2.9412,-1.3609 -5.7127,-3.4976 -8.1695,-6.9491 4.3649,-0.21814 8.0134,-0.20873 11.158,-0.0249 -0.0588,-0.0241 -0.11565,-0.0501 -0.17432,-0.0747 -0.19112,-0.0171 -0.38297,-0.0293 -0.57291,-0.0498 l 0.27402,-0.0996 c -3.2694,-1.4354 -6.2954,-3.7615 -8.8918,-7.6962 5.4246,-0.0792 9.7215,0.17686 13.325,0.62265 -0.10976,-0.0298 -0.21441,-0.0683 -0.32383,-0.0996 -0.13908,-0.008 -0.28605,-0.0147 -0.4234,-0.0249 l 0.17433,-0.0498 c -4.2498,-1.266 -8.174,-3.7047 -11.432,-8.6427 4.382,-0.0639 8.0408,0.10194 11.183,0.39853 -0.0682,-0.0372 -0.13136,-0.0867 -0.19926,-0.12459 -3.7543,-2.0944 -6.9817,-5.2401 -9.116,-10.561 3.8538,0.72993 7.0841,1.5002 9.8881,2.3164 -0.0465,-0.0369 -0.10329,-0.0621 -0.14945,-0.0996 l 0.17432,0.0249 c -2.8863,-2.1539 -5.3128,-5.1719 -6.949,-9.6391 2.6533,0.58655 5.0239,1.203 7.1483,1.8183 -1.907,-2.3057 -3.38,-5.1839 -4.2092,-8.9665 2.8812,1.061 5.3803,2.0819 7.5966,3.0885 -0.0268,-0.0314 -0.0481,-0.068 -0.0747,-0.0996 -0.0453,-0.0357 -0.10543,-0.0639 -0.14942,-0.0996 l 0.0747,0.0249 c -2.0331,-2.4363 -3.5844,-5.5001 -4.3587,-9.5643 4.0565,1.622 7.3561,3.1788 10.137,4.6576 -0.0786,-0.076 -0.17511,-0.14738 -0.24907,-0.22412 l 0.0747,0.0249 c -2.4595,-2.6976 -4.2958,-6.1629 -5.0312,-10.934 4.7882,2.1139 8.4776,4.0784 11.507,5.9279 -0.032,-0.0328 -0.068,-0.0668 -0.0996,-0.0996 l 0.19926,0.0996 c -3.4396,-2.9457 -6.0783,-6.8543 -6.9988,-12.827 6.4533,2.8489 10.967,5.4289 14.471,7.8208 -1.5048,-3.0434 -2.2999,-6.5895 -1.9178,-11.034 6.237,4.7851 10.186,8.643 13.126,12.055 -0.005,-0.0492 0.004,-0.10012 0,-0.14946 -0.1783,-2.1625 -0.0435,-4.5072 0.59776,-7.0984 3.6977,6.3528 7.3958,8.9861 11.158,11.158 -4.7054,-3.05 -3.8605,-5.5216 -3.8605,-8.3439 5.5952,5.8925 13.379,12.151 15.766,16.065 -3.191,-4.7923 -4.4652,-9.3434 -5.3052,-13.35 -16.327,-8.6347 -26.291,-10.895 -37.435,-14.346 4.3231,-1.5856 8.9633,-3.1258 7.0487,-5.3301 l -5.106,-5.106 c 3.2647,1.0149 6.5993,2.4781 9.4896,0.49814 -0.28367,-2.6778 -3.6612,-4.0429 -6.5506,-5.604 5.0869,1.8329 6.1844,1.4013 7.5219,0.97135 0.66825,-3.2088 -1.6524,-4.9294 -3.1631,-7.0487 12.813,9.7424 29.522,17.434 41.296,20.648 16.561,5.5771 37.929,11.391 43.737,25.53 l 5.8033,23.313 c 6.8085,7.3686 13.07,14.997 16.04,24.284 18.958,3.6678 34.295,2.3531 50.287,1.9427 -1.4576,0.24292 -48.818,8.2691 -48.818,8.2691 -13.844,18.942 -34.497,6.0592 -41.296,-12.653 -1.716,-4.7228 -11.509,-4.7124 -14.346,0.0249 -11.218,24.152 -45.282,49.693 -74.273,59.104 v 1.6e-4 z"
                 id="path3373"
                 style="fill:#000000;fill-rule:nonzero" />
            </g>
            <g
               id="g3375">
              <path
                 d="m 149.63,-339.31 c 1.9102,-3.4413 3.8962,-6.3775 5.9698,-8.9221 -0.94804,0.13829 -1.9248,0.21967 -2.9392,0.20899 -2.0037,-0.0211 -4.1457,-0.35373 -6.4662,-1.0843 4.0493,-3.3909 7.4714,-5.8655 10.49,-7.7726 -4.6633,1.4895 -9.685,1.7016 -15.584,-1.0973 4.3088,-2.6963 7.9255,-4.6449 11.091,-6.1005 -4.9349,0.90956 -10.052,0.4951 -15.637,-3.1874 3.6874,-1.6432 6.8762,-2.8768 9.7059,-3.8145 -4.6448,-0.16235 -9.2423,-1.5969 -13.742,-5.8653 3.9032,-0.96832 7.2473,-1.6103 10.189,-2.0379 -3.6004,-0.72745 -7.1321,-2.4544 -10.555,-5.9045 2.652,-0.57299 5.0392,-1.0054 7.2239,-1.3325 -2.6896,-1.3 -5.2362,-3.3147 -7.5636,-6.4009 3.056,-0.23727 5.7597,-0.34265 8.1906,-0.35269 -2.9413,-1.3609 -5.6946,-3.5113 -8.1514,-6.9627 4.3648,-0.21817 8.0109,-0.19694 11.156,-0.013 -3.4564,-1.413 -6.642,-3.8007 -9.3663,-7.9294 5.4246,-0.0792 9.7208,0.18126 13.324,0.62703 -4.4722,-1.2142 -8.612,-3.6557 -12.018,-8.8176 4.382,-0.0639 8.0396,0.0954 11.182,0.39191 -3.8417,-2.0935 -7.1412,-5.269 -9.3139,-10.686 3.9551,0.74904 7.2698,1.5509 10.124,2.3905 -2.9731,-2.1636 -5.4721,-5.2025 -7.1456,-9.7712 2.6533,0.58652 5.0081,1.2006 7.1325,1.8158 -1.9071,-2.3057 -3.3771,-5.1916 -4.2063,-8.9744 2.8812,1.0611 5.3734,2.0894 7.5897,3.096 -2.1056,-2.4639 -3.7138,-5.5831 -4.5068,-9.7451 4.0565,1.622 7.356,3.1717 10.137,4.6505 -2.5494,-2.7253 -4.4461,-6.2311 -5.1991,-11.117 4.9388,2.1803 8.728,4.2001 11.809,6.1005 -3.5384,-2.9654 -6.2592,-6.9085 -7.1978,-12.998 6.4534,2.849 10.957,5.4329 14.461,7.8249 -1.5048,-3.0435 -2.3024,-6.6071 -1.9203,-11.051 6.237,4.7851 10.188,8.6584 13.128,12.07 -0.19831,-2.2032 -0.0419,-4.5996 0.61402,-7.25 4.4776,7.6927 8.9272,9.9388 13.532,12.506 -7.3345,-3.6926 -6.2472,-6.4725 -6.2472,-9.698 5.5952,5.8924 13.398,12.141 15.785,16.055 -3.191,-4.7923 -4.4899,-9.3306 -5.3297,-13.337 -16.327,-8.6347 -26.268,-10.891 -37.413,-14.343 4.323,-1.5856 8.9557,-3.1385 7.0411,-5.3428 l -5.1077,-5.0946 c 3.2647,1.0148 6.5935,2.4633 9.4838,0.48331 -0.28364,-2.6779 -3.6684,-4.0299 -6.5578,-5.591 5.0868,1.8329 6.1869,1.4096 7.5244,0.9797 0.66825,-3.2088 -1.6506,-4.9348 -3.1612,-7.0541 12.813,9.7423 29.532,17.439 41.306,20.653 16.561,5.5772 37.915,11.374 43.722,25.512 l 5.8262,23.318 c 6.8084,7.3686 13.071,15.01 16.042,24.297 18.958,3.6678 34.288,2.3437 50.28,1.9334 -1.4576,0.24286 -48.83,8.269 -48.83,8.269 -13.844,18.942 -34.481,6.0668 -41.28,-12.645 -1.716,-4.7228 -11.506,-4.7243 -14.343,0.013 -11.218,24.152 -45.286,49.687 -74.277,59.098 v 7e-5 z"
                 id="path3377"
                 style="fill:#008080;fill-rule:nonzero" />
            </g>
            <g
               id="g3379">
              <path
                 d="m 261.48,-388.74 -0.12456,-0.19925 c -0.4913,-0.91531 -1.3223,-1.5401 -2.4907,-1.9179 -1.1684,-0.37781 -2.6653,-0.49887 -4.4085,-0.42338 l -1.0959,0.0498 0.79703,-0.77217 c 0.40463,-0.38918 0.51767,-0.69986 0.52301,-0.97133 0.006,-0.27155 -0.11111,-0.56476 -0.37358,-0.89664 -0.525,-0.66394 -1.5677,-1.3848 -2.5405,-2.1172 l -0.32382,-0.22413 0.22419,-0.32382 c 0.81153,-1.245 1.1831,-2.2034 1.2702,-2.939 0.0871,-0.73564 -0.0839,-1.2633 -0.42338,-1.7185 -0.67914,-0.91069 -2.1699,-1.5277 -3.5119,-2.2914 l -0.24906,-0.12457 0.0498,-0.29889 c 0.1154,-0.70026 -0.0733,-1.2725 -0.57283,-1.8431 -0.49965,-0.57051 -1.3407,-1.1146 -2.4658,-1.5941 l -0.29887,-0.1245 0.0498,-0.32383 c 0.22444,-1.4994 0.67516,-2.8042 1.619,-3.6364 0.86341,-0.76131 2.1696,-0.96208 3.8357,-0.62262 0.29044,-1.5984 0.70673,-3.052 1.6687,-4.0101 0.97508,-0.97099 2.5188,-1.2582 4.5829,-0.72224 0.46452,-1.1195 1.1433,-1.9172 1.9179,-2.4409 0.8505,-0.57498 1.9619,-0.80691 2.8761,-1.0909 l 0.54167,0.58256 c -0.90741,0.28181 -2.247,0.71739 -2.9695,1.2057 -0.72243,0.48833 -1.3094,1.1582 -1.7186,2.3163 l -0.12451,0.39852 -0.3985,-0.1245 c -2.1225,-0.65228 -3.2994,-0.35858 -4.1097,0.44834 -0.81017,0.80682 -1.2658,2.2654 -1.5442,3.9602 l -0.0747,0.44833 -0.44831,-0.1245 c -1.7494,-0.45646 -2.7822,-0.223 -3.487,0.39852 -0.65841,0.58055 -1.0481,1.6098 -1.2702,2.8892 1.0135,0.46855 1.8823,0.98105 2.4409,1.6189 0.54563,0.62318 0.78188,1.3925 0.74721,2.1918 1.2365,0.6801 2.7279,1.2646 3.5866,2.416 0.44899,0.60199 0.68219,1.3933 0.57283,2.3163 -0.0994,0.83983 -0.51064,1.8101 -1.2204,2.964 0.87123,0.64177 1.817,1.2849 2.4159,2.0424 0.33307,0.42105 0.5835,0.88716 0.5729,1.4196 -0.006,0.29364 -0.2882,0.56113 -0.44832,0.84685 1.5152,-0.0198 2.8957,0.08 4.0349,0.44833 1.2002,0.38808 2.1431,1.0954 2.7646,2.0673 1.7934,-0.009 3.6505,-0.40349 5.5293,-0.6476 1.93,-0.25082 3.894,-0.3181 5.7536,0.49814 l -0.3487,0.77207 c -1.6453,-0.72217 -3.4029,-0.6922 -5.2803,-0.44832 -1.8774,0.24397 -3.834,0.68681 -5.8034,0.67253 h -0.24907 z"
                 id="path3381"
                 style="fill:#ffffff;fill-rule:nonzero" />
            </g>
            <g
               id="g3383">
              <path
                 d="m 268.45,-388.43 c 0,-1.9546 -1.5845,-3.5391 -3.5391,-3.5391 -1.9545,0 -3.539,1.5845 -3.539,3.5391 0,1.9545 1.5845,3.5391 3.539,3.5391 1.9546,0 3.5391,-1.5845 3.5391,-3.5391 z"
                 id="path3385"
                 style="fill:#ffffff;fill-rule:nonzero;stroke:#ffffff;stroke-width:0.83587998;stroke-linecap:butt;stroke-linejoin:miter;stroke-miterlimit:4;stroke-dasharray:none" />
            </g>
            <g
               id="g3387">
              <path
                 d="m 279.02,-385.11 c -3.1773,-4.1333 -3.9762,-3.0658 -5.9105,-3.7587 l -0.32373,-0.12449 0.0498,-0.34868 c 0.74474,-4.1516 3.2052,-5.4707 5.1254,-6.9798 l 0.1072,0.33579 0.51114,0.0974 c -1.925,1.5127 -4.0314,2.794 -4.7973,6.3224 1.4086,0.33323 2.7528,-0.0929 5.7535,3.8108 l -0.51552,0.64527 z"
                 id="path3389"
                 style="fill:#ffffff;fill-rule:nonzero" />
            </g>
            <g
               id="g3391">
              <path
                 d="m 156.68,-356.87 c 6.0038,-3.7227 15.885,-7.5616 22.231,-11.572 3.4911,-2.2229 6.6268,-4.4378 9.0662,-6.3512 2.4394,-1.9135 4.2432,-3.8904 4.9067,-4.5331 0.66353,-0.64271 1.1139,-0.33905 0.67246,0.49814 -0.44139,0.83712 -2.6143,2.7725 -5.081,4.7074 -2.4666,1.9349 -5.6042,4.1401 -9.116,6.3762 -7.0236,4.4721 -15.267,8.4708 -22.679,10.875 z"
                 id="path3393"
                 style="fill:#ffffff;fill-rule:nonzero" />
            </g>
            <g
               id="g3395">
              <path
                 d="m 155.6,-348.23 c 2.5168,-0.58121 6.2314,-2.7278 10.362,-5.0244 4.1307,-2.2966 8.6327,-5.1227 12.752,-7.8706 4.1196,-2.7479 7.2959,-5.1529 9.835,-7.0903 2.4112,-2.0634 3.6017,-3.3995 4.0631,-3.3955 0.0633,-0.0127 0.12562,-0.0137 0.2242,0 0.0986,0.0137 0.26494,0.0897 0.3487,0.24907 0.0837,0.15924 0.0513,0.29308 0.0249,0.37357 -0.0265,0.0805 -0.0406,0.12321 -0.0747,0.17439 -0.13623,0.20459 -0.34416,0.39619 -0.6476,0.67244 -0.60693,0.5525 -1.6097,1.365 -2.8892,2.3413 -2.5591,1.9526 -6.2778,4.6154 -10.411,7.3725 -4.1334,2.7571 -8.6672,5.6076 -12.827,7.9204 -1.4787,0.54794 -8.7305,4.383 -10.761,4.2772 h -1e-4 z"
                 id="path3397"
                 style="fill:#ffffff;fill-rule:nonzero" />
            </g>
            <g
               id="g3399">
              <path
                 d="m 152.16,-364.08 c 7.7058,-3.1453 18.668,-6.8398 25.985,-11.439 3.9315,-2.4965 7.3558,-4.9835 9.913,-7.0238 1.2786,-1.0201 2.3465,-1.9371 3.1383,-2.665 0.79176,-0.72801 1.2383,-1.3888 1.4944,-1.5692 0.53592,-0.37753 0.94616,-0.12672 0.6974,0.47329 -0.18785,0.45301 -0.80771,0.97268 -1.619,1.7186 -0.81129,0.74585 -1.8972,1.66 -3.1881,2.69 -2.5817,2.0598 -6.0286,4.5845 -9.9877,7.0986 -7.9181,5.028 -17.384,9.4486 -26.433,10.717 z"
                 id="path3401"
                 style="fill:#ffffff;fill-rule:nonzero" />
            </g>
            <g
               id="g3403">
              <path
                 d="m 146.23,-371.07 c 6.0055,-0.004 18.411,-5.501 23.64,-8.2559 8.4783,-4.5216 16.188,-10.334 20.449,-14.396 0.47246,-0.45047 1.1627,-0.0529 0.62271,0.57282 -3.9578,4.5861 -12.132,9.9907 -20.673,14.546 -8.5411,4.5551 -17.385,7.5403 -24.039,7.5336 z"
                 id="path3405"
                 style="fill:#ffffff;fill-rule:nonzero" />
            </g>
            <g
               id="g3407">
              <path
                 d="m 142.76,-378.98 c 9.0285,-1.3211 19.851,-4.9654 27.736,-8.9142 4.4003,-2.2342 8.324,-4.6272 11.333,-6.7498 3.0087,-2.1226 5.2302,-4.5124 5.7784,-5.1308 0.54821,-0.6184 1.2012,-0.64416 0.69741,0.44832 -0.50382,1.0925 -2.9543,3.2293 -6.0026,5.3799 -3.0483,2.1506 -6.9976,4.548 -11.432,6.7997 -8.8694,4.5033 -18.97,8.0461 -28.11,8.167 z"
                 id="path3409"
                 style="fill:#ffffff;fill-rule:nonzero" />
            </g>
            <g
               id="g3411">
              <path
                 d="m 145.74,-385.7 c -2.2428,0.19567 -4.2617,-0.26422 -6.3186,-0.52134 8.0222,0.75177 19.24,-2.9322 26.718,-6.378 8.8087,-4.1296 16.123,-9.7992 19.627,-13.4 0.54852,-0.56374 0.93611,0.15461 0.6476,0.52307 -3.2626,4.1653 -11.032,9.4797 -19.926,13.649 -6.6701,3.127 -14.019,5.5399 -20.748,6.1271 z"
                 id="path3413"
                 style="fill:#ffffff;fill-rule:nonzero" />
            </g>
            <g
               id="g3415">
              <path
                 d="m 140.04,-392.93 c 7.8945,-0.58519 18.464,-2.4755 25.868,-5.8742 7.4463,-3.4828 13.097,-7.9987 15.94,-10.561 0.43748,-0.39421 1.2112,-0.11495 0.59778,0.59778 -2.5947,3.0148 -8.6278,7.1848 -16.165,10.71 -7.5368,3.5251 -16.692,5.7829 -26.241,5.127 z"
                 id="path3417"
                 style="fill:#ffffff;fill-rule:nonzero" />
            </g>
            <g
               id="g3419">
              <path
                 d="m 147.13,-399.5 c -1.6656,0.0564 -2.4469,-0.25529 -4.0538,-0.4288 5.3581,-0.23616 13.873,-1.6612 18.575,-3.2574 6.1018,-2.117 11.119,-5.3058 13.973,-7.796 0.55105,-0.48085 0.96185,0.16426 0.59777,0.57291 -2.6728,2.9994 -8.105,5.8719 -14.297,8.0201 -4.6437,1.6111 -9.7981,2.7202 -14.795,2.8892 z"
                 id="path3421"
                 style="fill:#ffffff;fill-rule:nonzero" />
            </g>
            <g
               id="g3423">
              <path
                 d="m 146.9,-407.27 c 11.454,-0.7729 18.38,-2.791 23.689,-7.5468 0.39781,-0.35636 1.0258,0.13414 0.59778,0.59777 -5.4482,5.9027 -16.175,7.5475 -24.287,6.949 z"
                 id="path3425"
                 style="fill:#ffffff;fill-rule:nonzero" />
            </g>
            <g
               id="g3427">
              <path
                 d="m 155.72,-414.15 c -3.4722,0.27927 -6.3776,-0.4795 -9.542,-1.5332 9.2605,1.476 13.111,0.76824 20.127,-2.5266 0.79983,-0.37556 0.75288,0.50929 0.39853,0.72235 -3.7271,2.2403 -7.5119,3.0583 -10.984,3.3375 z"
                 id="path3429"
                 style="fill:#ffffff;fill-rule:nonzero" />
            </g>
            <g
               id="g3431">
              <path
                 d="m 155.39,-420.6 c -3.2829,-0.2911 -6.0705,-1.4184 -8.3688,-3.2877 9.1706,3.5347 11.705,2.8314 18.719,0.84302 0.92241,-0.2615 0.63579,0.62702 0.27395,0.77217 -4.1998,1.6838 -7.3409,1.9636 -10.624,1.6726 z"
                 id="path3433"
                 style="fill:#ffffff;fill-rule:nonzero" />
            </g>
            <g
               id="g3435">
              <path
                 d="m 173.56,-426.28 c -4.8928,0.52905 -10.405,-0.0643 -15.243,-0.94647 -4.8377,-0.88215 -8.9984,-2.6745 -11.347,-4.5848 8.0435,3.3971 9.5094,3.3898 11.497,3.7629 4.7661,0.86908 9.4905,1.208 15.044,0.94647 0.50357,-0.0238 0.47783,0.77558 0.0498,0.82189 z"
                 id="path3437"
                 style="fill:#ffffff;fill-rule:nonzero" />
            </g>
            <g
               id="g3439">
              <path
                 d="m 176.4,-430.24 c -5.3024,0.2003 -10.779,-1.1119 -15.517,-2.4658 -4.7376,-1.354 -8.2541,-3.2016 -10.573,-5.0877 4.6921,2.257 9.0584,3.7848 10.797,4.2907 4.6714,1.3351 9.3839,2.4909 15.343,2.416 0.46291,-0.006 0.76212,0.81613 -0.0498,0.84684 z"
                 id="path3441"
                 style="fill:#ffffff;fill-rule:nonzero" />
            </g>
            <g
               id="g3443">
              <path
                 d="m 180.73,-433.5 c -4.994,-0.73732 -10.23,-2.2123 -14.795,-3.7609 -4.5645,-1.5487 -7.8136,-3.3879 -9.9331,-5.5898 5.4293,3.1165 8.4152,4.2093 10.182,4.8176 4.5085,1.5297 8.7183,2.5942 14.695,3.7112 0.71732,0.13406 0.14124,0.86486 -0.14944,0.82189 z"
                 id="path3445"
                 style="fill:#ffffff;fill-rule:nonzero" />
            </g>
            <g
               id="g3447">
              <path
                 d="m 183.27,-437.66 c -10.015,-1.5953 -16.505,-5.9162 -20.63,-10.201 6.3928,4.8165 10.84,7.405 20.804,9.3794 0.63066,0.12497 0.44019,0.91984 -0.17433,0.82197 z"
                 id="path3449"
                 style="fill:#ffffff;fill-rule:nonzero" />
            </g>
            <g
               id="g3451">
              <path
                 d="m 188.15,-441.32 c -10.073,-1.5516 -15.882,-7.675 -18.301,-11.717 6.3731,6.3665 11.333,9.8314 18.475,10.895 0.72281,0.10759 0.53837,0.93171 -0.17432,0.82189 z"
                 id="path3453"
                 style="fill:#ffffff;fill-rule:nonzero" />
            </g>
            <g
               id="g3455">
              <path
                 d="m 191.19,-444.51 c -1.571,-0.19615 -3.7088,-1.3087 -5.7286,-2.5903 -2.0198,-1.2816 -3.5438,-2.841 -4.4526,-4.8501 2.433,2.511 3.407,3.1904 4.9009,4.1527 1.9392,1.2305 3.8934,2.0055 5.4795,2.4658 0.74354,0.21577 0.18164,0.86949 -0.19927,0.8219 z"
                 id="path3457"
                 style="fill:#ffffff;fill-rule:nonzero" />
            </g>
            <g
               id="g3459">
              <path
                 d="m 268.45,-388.43 c 0,-1.9546 -1.5845,-3.5391 -3.5391,-3.5391 -1.9545,0 -3.539,1.5845 -3.539,3.5391 0,1.9545 1.5845,3.5391 3.539,3.5391 1.9546,0 3.5391,-1.5845 3.5391,-3.5391 z"
                 id="path3461"
                 style="fill:#ffffff;fill-rule:nonzero;stroke:#ffffff;stroke-width:0.83587998;stroke-linecap:butt;stroke-linejoin:miter;stroke-miterlimit:4;stroke-dasharray:none" />
            </g>
            <g
               id="g3463">
              <path
                 d="m 268.45,-388.43 c 0,-1.9546 -1.5845,-3.5391 -3.5391,-3.5391 -1.9545,0 -3.539,1.5845 -3.539,3.5391 0,1.9545 1.5845,3.5391 3.539,3.5391 1.9546,0 3.5391,-1.5845 3.5391,-3.5391 z"
                 id="path3465"
                 style="fill:#37c871;fill-rule:nonzero;stroke:#ffffff;stroke-width:0.83587998;stroke-linecap:butt;stroke-linejoin:miter;stroke-miterlimit:4;stroke-dasharray:none" />
            </g>
          </g>
        </g>
      </g>
    </g>
  </g>
</svg>
